<svg width="255" height="42" viewBox="0 0 255 42" fill="none" xmlns="http://www.w3.org/2000/svg">
<path d="M22.0244 0L26.9692 14.5106H42.9708L30.0252 23.4787L34.97 37.9894L22.0244 29.0213L9.07878 37.9894L14.0236 23.4787L1.07795 14.5106H17.0796L22.0244 0Z" fill="#FF5900"/>
<path d="M74.2685 0L79.2133 14.5106H95.215L82.2694 23.4787L87.2141 37.9894L74.2685 29.0213L61.3229 37.9894L66.2677 23.4787L53.3221 14.5106H69.3237L74.2685 0Z" fill="#FF5900"/>
<path d="M126.512 0L131.457 14.5106H147.459L134.513 23.4787L139.458 37.9894L126.512 29.0213L113.567 37.9894L118.511 23.4787L105.566 14.5106H121.567L126.512 0Z" fill="#FF5900"/>
<path d="M178.756 0L183.701 14.5106H199.703L186.757 23.4787L191.702 37.9894L178.756 29.0213L165.811 37.9894L170.755 23.4787L157.81 14.5106H173.812L178.756 0Z" fill="#FF5900"/>
<path d="M232.024 0L236.969 14.5106H252.971L240.025 23.4787L244.97 37.9894L232.024 29.0213L219.079 37.9894L224.024 23.4787L211.078 14.5106H227.08L232.024 0Z" fill="#FF5900"/>
</svg>
